<svg width="62" height="62" viewBox="0 0 62 62" fill="none" xmlns="http://www.w3.org/2000/svg">
<path fill-rule="evenodd" clip-rule="evenodd" d="M27.2573 5.29661L30.9971 9.03639L34.7359 5.29661C35.9684 4.06407 37.6097 3.3837 39.3531 3.3837C41.0967 3.3837 42.7368 4.06413 43.9693 5.29661L56.7017 18.029C57.9789 19.3062 58.6741 21.0728 58.6098 22.8782L58.5557 24.4C58.5468 24.6503 58.3414 24.8485 58.091 24.8485H41.2223C41.099 24.8485 40.9807 24.7995 40.8935 24.7123L30.9972 14.816L14.812 31.0022L30.9983 47.1885L41.6905 36.4951C41.7777 36.4079 41.896 36.3589 42.0194 36.3589H57.7426C57.9615 36.3589 58.1508 36.5116 58.1971 36.7255L58.4665 37.9701C58.9396 40.1515 58.2791 42.3981 56.7028 43.9744L43.9704 56.7068C41.4248 59.2524 37.2827 59.2524 34.737 56.7068L30.9983 52.968L27.2584 56.7068C25.986 57.9792 24.3126 58.6163 22.6423 58.6163L22.6339 58.6162C22.6255 58.6161 22.6171 58.6157 22.6088 58.6151C20.9483 58.6069 19.2892 57.971 18.0249 56.7055L5.29266 43.9732C2.747 41.4276 2.74705 37.2854 5.29271 34.7398L9.03245 31.0011L5.29266 27.2613C2.747 24.7156 2.74701 20.5735 5.29268 18.0279L18.025 5.29661C19.2576 4.0641 20.8989 3.3837 22.6412 3.3837C24.3835 3.3837 26.0248 4.0641 27.2573 5.29661ZM41.0794 53.816C40.1283 54.768 38.5784 54.7676 37.6255 53.8157L33.8869 50.0771L43.5186 40.4444H54.273C54.1569 40.6769 54.0025 40.8928 53.8119 41.0835L41.0794 53.816ZM8.18131 41.0835L20.9135 53.8157C21.8662 54.7674 23.4163 54.7671 24.3676 53.8158L28.1073 50.0771L11.9211 33.8908L8.18127 37.6296C7.22991 38.581 7.22993 40.1321 8.18131 41.0835ZM11.9212 28.1114L8.18131 24.3715C7.22909 23.4202 7.2287 21.8703 8.18131 20.9176L20.9137 8.18526C21.3896 7.70934 22.0148 7.47143 22.6412 7.47143C23.2682 7.47143 23.8924 7.71008 24.3687 8.18639L28.1085 11.9262L11.9212 28.1114ZM42.7227 20.7608L33.8869 11.925L37.6257 8.18521C38.577 7.23395 40.127 7.23373 41.0797 8.18542L53.6551 20.7608H42.7227Z" fill="url(#paint0_linear_631_79)"/>
<defs>
<linearGradient id="paint0_linear_631_79" x1="31" y1="3.3837" x2="31" y2="58.6163" gradientUnits="userSpaceOnUse">
<stop stop-color="#FF3C78"/>
<stop offset="1" stop-color="#FE7831"/>
</linearGradient>
</defs>
</svg>
